<svg id="Capa_1" enable-background="new 0 0 512.54 512.54" height="512" viewBox="0 0 512.54 512.54" width="512" xmlns="http://www.w3.org/2000/svg"><path d="m482.128 318.124c-29.812-29.812-73.777-37.048-110.468-21.721v-176.763c0-7.314-2.848-14.19-8.019-19.361l-92.25-92.261c-2.159-2.158-4.672-3.921-7.398-5.243-.005-.003-.011-.005-.016-.008-.126-.061-.251-.123-.378-.182-.239-.116-.481-.225-.73-.323-3.408-1.469-7.106-2.262-10.849-2.262h-222.25c-15.957 0-28.94 12.982-28.94 28.94v454.66c0 15.958 12.982 28.94 28.94 28.94h312.95c15.28 0 27.971-11.946 28.892-27.197.013-.201.019-.402.019-.603v-2.073c12.467 5.213 25.772 7.826 39.08 7.826 25.864 0 51.728-9.845 71.418-29.534 19.076-19.077 29.582-44.44 29.582-71.418s-10.507-52.341-29.583-71.417zm-144.61-215.685h-66.082c-1.22 0-2.213-.993-2.213-2.213v-66.089zm14.112 381.944c-.403 4.594-4.271 8.157-8.91 8.157h-312.95c-4.93 0-8.94-4.01-8.94-8.94v-454.66c0-4.93 4.01-8.94 8.94-8.94h219.454v80.226c0 12.248 9.965 22.213 22.213 22.213h80.224v185.16c-4.332 3.125-8.472 6.629-12.368 10.525-19.076 19.077-29.582 44.44-29.582 71.418s10.506 52.341 29.582 71.418c3.887 3.887 8.017 7.384 12.338 10.503v12.92zm116.355-37.566c-31.582 31.582-82.969 31.582-114.551 0-15.299-15.299-23.725-35.64-23.725-57.275s8.426-41.977 23.725-57.275c15.791-15.791 36.533-23.687 57.275-23.687s41.484 7.896 57.275 23.687c15.299 15.299 23.725 35.64 23.725 57.275s-8.425 41.976-23.724 57.275z"/><path d="m446.232 360.715-46.919 39.892-23.938-25.021c-3.817-3.992-10.148-4.13-14.139-.313-3.99 3.818-4.131 10.148-.313 14.139l30.456 31.835c1.958 2.047 4.588 3.087 7.229 3.087 2.295 0 4.599-.787 6.475-2.381l54.104-46c4.208-3.578 4.719-9.889 1.141-14.096-3.576-4.209-9.89-4.719-14.096-1.142z"/><path d="m71.296 159.38h139.414c5.523 0 10-4.477 10-10s-4.477-10-10-10h-139.414c-5.523 0-10 4.477-10 10s4.477 10 10 10z"/><path d="m245.481 319.298h-174.185c-5.523 0-10 4.477-10 10s4.477 10 10 10h174.185c5.523 0 10-4.477 10-10s-4.477-10-10-10z"/><path d="m245.481 379.271h-174.185c-5.523 0-10 4.477-10 10s4.477 10 10 10h174.185c5.523 0 10-4.477 10-10s-4.477-10-10-10z"/><path d="m301.71 259.326h-230.414c-5.523 0-10 4.477-10 10s4.477 10 10 10h230.414c5.522 0 10-4.477 10-10s-4.478-10-10-10z"/><path d="m70.296 220h180.414c5.523 0 10-4.477 10-10s-4.477-10-10-10h-180.414c-5.523 0-10 4.477-10 10s4.477 10 10 10z"/><circle cx="300.477" cy="210" r="10.005"/></svg>