<?xml version="1.0" encoding="utf-8"?>
<!-- Generator: Adobe Illustrator 25.0.0, SVG Export Plug-In . SVG Version: 6.00 Build 0)  -->
<svg version="1.1" id="Capa_1" xmlns="http://www.w3.org/2000/svg" xmlns:xlink="http://www.w3.org/1999/xlink" x="0px" y="0px"
	 viewBox="0 0 60 60" style="enable-background:new 0 0 60 60;" xml:space="preserve">
<style type="text/css">
	.st0{fill:#FFFFFF;}
</style>
<g>
	<path class="st0" d="M30,4.8c0.4-0.6,0.8-1.3,1.2-1.8c2.8-3.3,7.8-3.6,10.9-0.6c0.2,0.2,0.5,0.3,0.7,0.3c3.6,0.1,6.4,2.3,7.3,5.8
		c0.1,0.3,0.2,0.6,0.6,0.7c3.6,1.8,5.2,5.9,3.7,9.6c-0.1,0.3-0.1,0.5,0.2,0.7c3.1,2.5,3.5,7.1,1.4,10.1c-0.1,0.2-0.1,0.5,0,0.7
		c2.1,2.9,1.8,7.3-1.1,9.9c-0.1,0.1-0.2,0.5-0.1,0.7c0.5,2.1,0.2,4.1-0.9,5.9c-0.8,1.3-1.8,2.2-3.1,2.8c-0.3,0.1-0.4,0.3-0.4,0.6
		c-0.2,3.9-3.4,7-7.3,7.1c-0.3,0-0.6,0.1-0.8,0.3c-3.8,3.5-9.9,2.4-12.1-2.3c0,0,0,0-0.1-0.1c-0.1,0.1-0.2,0.2-0.3,0.4
		c-1.5,2.9-4.6,4.5-7.8,4c-1.6-0.2-2.9-0.9-4.1-1.9c-0.2-0.2-0.5-0.3-0.8-0.3c-3.8,0-7.2-3-7.4-7.1c0-0.2-0.2-0.5-0.4-0.6
		c-2-1-3.3-2.6-4-4.7c-0.4-1.3-0.4-2.7,0-4.1c0.1-0.3,0-0.5-0.2-0.7c-2.7-2.6-3.2-6.7-1-9.8c0.2-0.3,0.2-0.4,0-0.7
		c-2.2-3.3-1.7-7.4,1.3-10.1c0.3-0.2,0.3-0.4,0.2-0.8C4,15.1,5.7,11,9.3,9.2c0.2-0.1,0.4-0.4,0.5-0.6c0.7-3.3,3.7-5.8,7-5.9
		c0.5,0,0.8-0.1,1.2-0.4C21.8-1,27.3,0,29.7,4.4C29.8,4.6,29.9,4.7,30,4.8z M29.4,23.8c-0.2,0.2-0.3,0.3-0.4,0.4
		c-0.7,0.9-1.6,1.7-2.7,2.2c-1,0.5-2,0.7-3.1,0.7c-0.4,0-0.7-0.2-0.7-0.6c0-0.4,0.2-0.5,0.6-0.5c0.2,0,0.4,0,0.6-0.1
		c1.7-0.2,3.2-1,4.3-2.3c1.3-1.4,1.5-3.1,1.5-5c0-3.4,0-6.9,0-10.3c0-1-0.1-2-0.5-2.9c-1.7-4.3-7.1-5.4-10.5-2.2
		c-0.4,0.3-0.7,0.5-1.2,0.5c-1.4,0-2.6,0.4-3.7,1.1c-1.4,1-2.4,2.4-2.7,4.1c-0.1,0.5-0.3,0.9-0.8,1.1c-3.4,1.4-5,5.4-3.3,8.8
		c0.4,0.7,0.3,0.8-0.3,1.3c-3,2.1-3.6,6.2-1.3,9.1c0.4,0.5,0.4,1,0,1.5c-0.7,0.9-1.2,2-1.3,3.1c-0.3,2.3,0.6,4.2,2.3,5.7
		c0.4,0.4,0.5,0.7,0.3,1.2c-1.1,3.3,0.6,6.7,3.7,7.9c0.5,0.2,0.7,0.4,0.7,1c0,2.8,1.8,5.4,4.5,6.2c0.4,0.1,0.7,0.2,1.1,0.2
		c0-0.1,0-0.2,0-0.2c0-0.1-0.1-0.2-0.1-0.3c-0.6-1-0.9-2.1-0.8-3.3c0-0.4,0.1-0.8,0.6-0.8c0.5,0,0.6,0.3,0.6,0.8
		c0,0.4,0,0.8,0.1,1.1c0.2,1.1,0.8,2,1.6,2.9c2.5,2.8,6.8,3,9.5,0.2c1.4-1.4,1.8-3.2,1.8-5.1c0-9.1,0-18.1,0-27.2
		C29.5,24.2,29.5,24,29.4,23.8z M38.6,33c2.5,0,4.9,0,7.4,0c0.7,0,0.9,0.2,0.9,0.9c0,1,0,2,0,3c0,0.5,0.2,0.8,0.7,0.9
		c2.1,0.6,3.4,3,2.6,5.3c-0.6,1.7-2.5,2.8-4.5,2.5c-1.7-0.2-3.2-1.8-3.3-3.5c-0.2-2.1,0.9-3.8,2.9-4.4c0.5-0.1,0.6-0.4,0.6-0.8
		c0-0.7,0-1.5,0-2.2c0-0.6,0-0.7-0.7-0.7c-4.6,0-9.3,0-13.9,0c-0.5,0-0.7,0.2-0.6,0.7c0,1.5,0,3,0,4.5c0,0.7,0,0.7,0.7,0.7
		c2.2,0,4.4,0,6.6,0c0.7,0,0.9,0.2,0.9,0.9c0,1.4,0,2.9,0,4.3c0,0.4,0.1,0.7,0.6,0.8c0.8,0.2,1.4,0.6,1.9,1.2
		c1.2,1.3,1.3,3.2,0.5,4.8c-0.7,1.2-2.3,2.3-4.3,1.9c-1.9-0.4-3.3-2-3.3-3.9c0-2,1.3-3.5,3-3.9c0.4-0.1,0.5-0.3,0.5-0.7
		c0-1.2,0-2.4,0-3.6c0-0.5-0.1-0.6-0.6-0.6c-1.9,0-3.8,0-5.7,0c-0.7,0-0.7,0-0.7,0.7c0,3.2,0,6.5,0,9.7c0,0.8,0.1,1.6,0.3,2.3
		c1.3,4.7,7.1,6.3,10.6,2.9c0.4-0.4,0.8-0.6,1.3-0.5c1,0.1,1.9-0.1,2.8-0.6c2.4-1.2,3.7-3.2,3.7-5.9c0-0.5,0.1-0.8,0.6-0.9
		c0.1,0,0.3-0.1,0.4-0.2c2.8-1.3,4.4-4.9,3.3-7.7c-0.3-0.8-0.3-0.8,0.3-1.3c2.7-2.3,3.1-6,0.9-8.8c-0.4-0.5-0.4-0.9,0-1.5
		c0.7-0.9,1.1-1.8,1.3-2.9c0.3-2.6-0.6-4.7-2.7-6.3c-0.6-0.4-0.6-0.5-0.3-1.2c0.5-1,0.8-2,0.7-3.1c-0.2-2.7-1.5-4.6-4-5.7
		c-0.4-0.2-0.7-0.5-0.8-0.9C48.6,6,46,3.8,42.7,3.8c-0.5,0-0.8-0.1-1.2-0.5c-1.9-1.8-4.1-2.4-6.7-1.5c-2.3,0.8-4.2,3.2-4.2,5.6
		c0,1.8,0,3.5-0.1,5.3c0,1.9,0,3.8,0,5.7c0,0.3,0,0.6,0.5,0.6c3.2,0,6.4,0,9.5,0c0.4,0,0.5-0.2,0.5-0.5c0-0.9,0-1.7,0-2.6
		c0-0.4-0.2-0.5-0.5-0.6c-0.3-0.1-0.6-0.2-0.9-0.4c-1.7-1-2.5-3-1.8-4.9c0.6-1.8,2.6-2.9,4.5-2.6c1.9,0.3,3.2,1.9,3.3,3.9
		c0.1,1.9-1.2,3.6-3,4c-0.4,0.1-0.5,0.3-0.5,0.6c0,1,0,2.1,0,3.1c0,0.9-0.2,1.1-1.1,1.1c-3.3,0-6.6,0-9.9,0c-0.4,0-0.6,0.1-0.6,0.6
		c0,1.5,0,3.1,0,4.6c0,0.7,0,0.7,0.7,0.7c3.8,0,7.6,0,11.4,0c0.6,0,0.8-0.2,1-0.7c0.6-2.1,2.9-3.3,5.2-2.6c2,0.6,3.2,3,2.6,5
		c-0.6,1.8-2.1,2.9-4,2.8c-1.8,0-3.3-1.2-3.8-3c-0.1-0.4-0.3-0.5-0.7-0.5c-3.9,0-7.9,0-11.8,0c-0.4,0-0.6,0.1-0.6,0.6
		c0,1.6,0,3.1,0,4.7c0,0.5,0.2,0.6,0.7,0.6C33.7,33,36.1,33,38.6,33z M50.4,26.6c0-1.6-1.3-3-2.9-3c-1.5,0-3,1.4-3,3
		c0,1.6,1.4,2.9,3,2.9C49.1,29.5,50.4,28.2,50.4,26.6z M49.3,41.7c0-1.6-1.3-2.9-2.9-2.9c-1.6,0-3,1.4-3,2.9c0,1.6,1.4,2.9,2.9,2.9
		C47.9,44.7,49.3,43.4,49.3,41.7z M44.6,11.5c0.1-1.6-1.3-3-2.9-3c-1.6,0-2.9,1.2-3,2.9c-0.1,1.6,1.3,3,2.9,3
		C43.2,14.4,44.6,13.1,44.6,11.5z M41.1,49.9c0-1.6-1.3-2.9-2.9-2.9c-1.6,0-3,1.4-3,3c0,1.6,1.4,3,2.9,2.9
		C40,52.8,41.1,51.4,41.1,49.9z"/>
	<path class="st0" d="M21.2,20.3c0,0.1,0,0.1,0,0.2c0,0.4-0.1,0.7-0.5,0.7c-0.5,0-0.5-0.3-0.6-0.7c-0.1-3-2.1-5.3-5-6.1
		c-0.5-0.1-1-0.1-1.4-0.2c-0.4,0-0.6-0.2-0.5-0.6c0-0.4,0.3-0.5,0.7-0.5c0.8,0.1,1.6,0.3,2.4,0.5c0.4,0.1,0.5,0,0.5-0.3
		c0.7-3.2,3.3-5.6,6.6-5.9c0.2,0,0.5-0.1,0.7,0c0.2,0.1,0.5,0.3,0.6,0.5c0.1,0.3-0.2,0.5-0.6,0.5c-1.6,0.1-3,0.6-4.2,1.7
		c-1.1,1-1.8,2.3-2.1,3.8c-0.1,0.4,0.1,0.6,0.4,0.8c1.7,1.3,2.7,3,3,5C21.2,19.9,21.2,20.1,21.2,20.3C21.2,20.3,21.2,20.3,21.2,20.3
		z"/>
	<path class="st0" d="M10.8,42.6c0-3.1,2.4-6.1,5.3-6.9c0.6-0.2,0.6-0.2,0.3-0.8c-0.6-1.1-0.9-2.3-1-3.5c0-0.3,0.1-0.6,0.4-0.7
		c0.4-0.1,0.6,0.1,0.7,0.6c0.1,1.2,0.4,2.3,1,3.3c1.2,1.9,3,2.9,5.2,3.1c0.4,0,0.7,0,0.7,0.5c0,0.4-0.3,0.6-0.8,0.6
		c-1.8-0.1-3.4-0.7-4.8-1.9c-0.3-0.3-0.6-0.3-1-0.2c-2,0.5-3.6,1.7-4.4,3.6c-0.3,0.7-0.5,1.6-0.6,2.4c-0.1,0.4-0.1,0.8-0.6,0.8
		C10.8,43.4,10.8,43,10.8,42.6z"/>
	<path class="st0" d="M23.6,51.9c-0.1,0.2-0.1,0.6-0.3,0.7c-0.4,0.3-0.8,0-0.9-0.6c0-1.3-0.4-2.5-1.2-3.5c-1.3-1.7-3-2.6-5.1-2.8
		c-0.4,0-0.7-0.1-0.7-0.5c0-0.4,0.3-0.6,0.7-0.6c0.1,0,0.3,0,0.4,0c2.8,0.3,4.9,1.6,6.2,4.1C23.3,49.8,23.5,50.8,23.6,51.9z"/>
	<path class="st0" d="M9.6,23.3c0.1-1.9,0.6-3.5,1.8-4.9c0,0,0.1-0.1,0.1-0.1c0.3-0.3,0.7-0.4,1-0.2c0.3,0.2,0.1,0.6-0.1,0.9
		c-1.1,1.2-1.7,2.6-1.7,4.2c0,1.6,0.5,3.1,1.6,4.3c0.3,0.3,0.5,0.7,0.2,1.1c-0.1,0.2-0.8,0-1.1-0.3C10.2,26.9,9.7,25.2,9.6,23.3z"/>
</g>
</svg>
