<?xml version="1.0" encoding="utf-8"?>
<!-- Generator: Adobe Illustrator 25.0.0, SVG Export Plug-In . SVG Version: 6.00 Build 0)  -->
<svg version="1.1" id="Capa_1" xmlns="http://www.w3.org/2000/svg" xmlns:xlink="http://www.w3.org/1999/xlink" x="0px" y="0px"
	 viewBox="0 0 60 60" style="enable-background:new 0 0 60 60;" xml:space="preserve">
<style type="text/css">
	.st0{fill:#FFFFFF;}
</style>
<g>
	<path class="st0" d="M30.5,46.7c0,0.2,0,0.3,0,0.5c0,3.2,0,6.4,0,9.6c0,0.1,0,0.3,0,0.3c-0.1,0.2-0.3,0.4-0.4,0.4
		c-0.2,0-0.4-0.2-0.5-0.4c-0.1-0.1,0-0.3,0-0.5c0-3.2,0-6.3,0-9.5c0-0.2,0-0.3,0-0.6c-0.2,0.1-0.3,0.2-0.3,0.3
		c-3.4,3.4-6.8,6.8-10.1,10.2c-0.3,0.3-0.6,0.6-1,0.3c-0.2-0.1-0.1-0.7,0.3-1.1c3.6-3.6,7.1-7.2,10.7-10.8c0.4-0.4,0.6-0.7,0.5-1.3
		c0-1.1,0-2.1,0-3.2c0-0.7,0-0.7-0.8-0.7c-7,0-14,0-20.9,0c-1.9,0-3-1.1-3-3c0-9.6,0-19.2,0-28.7c0-0.7,0-0.7-0.7-0.7
		c-1.4,0-1.4,0-1.4-1.4c0-1,0-2,0-3c0-0.8,0.1-0.9,0.9-0.9c6.4,0,12.8,0,19.1,0c11.2,0,22.4,0,33.6,0c0.9,0,1,0.1,1,1
		c0,1.2,0,2.3,0,3.5c0,0.7-0.1,0.8-0.8,0.8c-1.3,0-1.3,0-1.3,1.3c0,9.5,0,18.9,0,28.4c0,1.6-1.1,2.7-2.7,2.7c-7.1,0-14.1,0-21.2,0
		c-0.8,0-0.8,0-0.8,0.8c0,1.1,0,2.1,0,3.2c0,0.5,0.1,0.8,0.5,1.1c3.6,3.6,7.2,7.2,10.7,10.8c0.1,0.1,0.3,0.2,0.4,0.4
		c0.1,0.2,0,0.5,0,0.7c-0.2,0-0.5,0-0.7,0c-0.1,0-0.2-0.2-0.3-0.3c-3.3-3.4-6.7-6.7-10-10.1c-0.1-0.1-0.3-0.2-0.4-0.4
		C30.5,46.7,30.5,46.7,30.5,46.7z M30,7.9c-7.8,0-15.6,0-23.4,0c-0.8,0-0.8,0-0.8,0.8c0,9.5,0,19.1,0,28.6c0,1.3,0.6,2,2,2
		c7.7,0,15.4,0,23.1,0c7.1,0,14.3,0,21.4,0c1.2,0,1.9-0.7,1.9-1.9c0-9.6,0-19.2,0-28.7c0-0.8,0-0.8-0.8-0.8
		C45.6,7.9,37.8,7.9,30,7.9z M29.9,3.7c-6.5,0-12.9,0-19.4,0c-2.1,0-4.3,0-6.4,0c-0.4,0-0.5,0.1-0.5,0.5c0,0.7,0,1.3,0,2
		c0,0.7,0,0.7,0.8,0.7c11.4,0,22.7,0,34.1,0c5.7,0,11.4,0,17.1,0c0.6,0,0.6,0,0.6-0.6c0-0.6,0-1.2,0-1.9c0-0.8,0-0.8-0.8-0.8
		C47,3.7,38.5,3.7,29.9,3.7z"/>
	<path class="st0" d="M44.7,14.5c-0.3,0-0.4,0-0.6,0c-1.4,0-2.7,0-4.1,0c-0.1,0-0.3,0-0.4,0c-0.2-0.1-0.4-0.3-0.4-0.5
		c0-0.2,0.2-0.4,0.4-0.5c0.1-0.1,0.3,0,0.5,0c1.9,0,3.7,0,5.6,0c0.8,0,1,0.1,1,0.9c0,1.9,0,3.8,0,5.7c0,0.1,0,0.3,0,0.4
		c-0.1,0.2-0.3,0.4-0.5,0.4c-0.1,0-0.3-0.3-0.4-0.4c-0.1-0.1,0-0.3,0-0.4c0-1.4,0-2.8,0-4.1c0-0.2,0-0.3,0-0.6
		c-0.2,0.2-0.3,0.3-0.4,0.4c-2.7,2.7-5.3,5.4-8,8c-0.6,0.6-0.8,0.6-1.4,0c-0.7-0.7-1.4-1.4-2.1-2.1c-0.3-0.4-0.5-0.3-0.8,0
		c-2.5,2.5-5,5-7.5,7.5c-0.6,0.6-0.8,0.6-1.4,0c-0.7-0.7-1.5-1.4-2.2-2.2c-0.3-0.3-0.5-0.3-0.7,0c-2.5,2.5-5,5-7.5,7.5
		c-0.3,0.3-0.6,0.5-1,0.3c-0.2-0.1-0.1-0.7,0.3-1.1c2.6-2.6,5.2-5.2,7.8-7.9c0.5-0.5,1-0.5,1.5,0c0.7,0.7,1.4,1.4,2.1,2.1
		c0.3,0.3,0.5,0.3,0.8,0c2.4-2.4,4.8-4.9,7.2-7.3c0.1-0.1,0.2-0.2,0.3-0.3c0.5-0.5,0.8-0.5,1.3,0c0.7,0.7,1.5,1.5,2.2,2.3
		c0.2,0.2,0.4,0.3,0.6,0c2.6-2.6,5.2-5.2,7.8-7.8C44.5,14.7,44.6,14.7,44.7,14.5z"/>
	<path class="st0" d="M40.7,33.8c-2.4,0-4.7,0-7.1,0c-0.2,0-0.4,0-0.5,0c-0.2-0.1-0.4-0.3-0.4-0.4c0-0.2,0.1-0.4,0.3-0.5
		c0.1-0.1,0.4-0.1,0.6-0.1c4.7,0,9.5,0,14.2,0c0.1,0,0.2,0,0.2,0c0.3,0,0.6,0.2,0.6,0.5c0,0.4-0.3,0.5-0.6,0.5c-1.3,0-2.5,0-3.8,0
		C43.1,33.8,41.9,33.8,40.7,33.8z"/>
	<path class="st0" d="M17.1,14.4c-1.7,0-3.4,0-5.1,0c-0.1,0-0.3,0-0.4,0c-0.1-0.1-0.3-0.4-0.3-0.5c0-0.1,0.2-0.3,0.4-0.4
		c0.1-0.1,0.3,0,0.5,0c3.3,0,6.6,0,10,0c0.1,0,0.1,0,0.2,0c0.4,0,0.7,0.1,0.7,0.5c0,0.4-0.3,0.5-0.7,0.5
		C20.5,14.4,18.8,14.4,17.1,14.4z"/>
	<path class="st0" d="M42.8,28.5c1.7,0,3.3,0,5,0c0.1,0,0.3,0,0.4,0c0.2,0.1,0.4,0.3,0.4,0.4c0,0.2-0.2,0.4-0.4,0.5
		c-0.1,0.1-0.3,0-0.4,0c-3.3,0-6.7,0-10,0c-0.1,0-0.2,0-0.3,0c-0.3,0-0.6-0.2-0.6-0.6c0-0.3,0.3-0.5,0.6-0.5c1.4,0,2.7,0,4.1,0
		C42.1,28.5,42.4,28.5,42.8,28.5z"/>
</g>
</svg>
