<?xml version="1.0" encoding="utf-8"?>
<!-- Generator: Adobe Illustrator 25.0.0, SVG Export Plug-In . SVG Version: 6.00 Build 0)  -->
<svg version="1.1" id="Capa_1" xmlns="http://www.w3.org/2000/svg" xmlns:xlink="http://www.w3.org/1999/xlink" x="0px" y="0px"
	 viewBox="0 0 60 60" style="enable-background:new 0 0 60 60;" xml:space="preserve">
<style type="text/css">
	.st0{fill:#383838;}
</style>
<g>
	<path class="st0" d="M30,57.5c-7.1,0-14.2,0-21.3,0c-1.5,0-2.7-0.6-3.5-2c-0.4-0.6-0.4-1.3-0.4-2c0-4.1,0.1-8.3,0-12.4
		c-0.1-1.8,0.4-3.5,1-5.2c1.4-3.6,2.7-7.3,4.1-11c0.8-2.1,1.6-4.2,2.3-6.3c0.1-0.3,0.1-0.5,0.1-0.8c0-1.8,0-3.7,0-5.5
		c0-0.8,0.2-0.9,0.9-0.9c1.3,0,1.3,0,1.3-1.3c0-0.7,0-1.5,0-2.2c0-0.6,0.2-0.8,0.8-0.8c0.3,0,0.6,0,0.9,0c0.3,0,0.5-0.1,0.5-0.5
		c0-0.9,0-1.9,0-2.8c0-0.8,0.1-1,1-1c8.3,0,16.7,0,25,0c0.8,0,0.9,0.1,0.9,0.9c0,1,0,1.9,0,2.9c0,0.4,0.1,0.5,0.5,0.5
		c0.3,0,0.6,0,0.9,0c0.6,0,0.8,0.2,0.8,0.8c0,1,0,2,0,3c0,0.4,0.1,0.5,0.5,0.5c0.3,0,0.6,0,0.9,0c0.6,0,0.8,0.2,0.8,0.8
		c0,1.3,0.1,2.7,0,4c-0.1,1.4,0.2,2.6,0.7,3.9c2.1,5.6,4.1,11.2,6.2,16.7c0.2,0.5,0.4,0.9,0.5,1.4c0.1,0.3,0.1,0.7,0.2,1.1
		c0,0.3,0,0.5,0,0.8c0,4.4,0,8.8,0,13.3c0,1.1-0.2,2-0.9,2.8c-0.8,0.9-1.8,1.3-3,1.3c-6.7,0-13.3,0-20,0
		C30.8,57.5,30.4,57.5,30,57.5z M30,41.4c5.4,0,10.7,0,16.1,0c0.7,0,0.7,0,0.7-0.7c0-9.2,0-18.4,0-27.6c0-0.8,0-0.8-0.7-0.8
		c-10.7,0-21.3,0-32,0c-0.7,0-0.7,0-0.7,0.7c0,9.2,0,18.4,0,27.7c0,0.7,0,0.7,0.7,0.7C19.3,41.4,24.6,41.4,30,41.4z M54.2,41.4
		c-0.2,0.1-0.3,0.1-0.4,0.2c-0.7,0.5-1.5,0.8-2.3,0.8c-14.3,0-28.7,0-43,0c-0.8,0-1.6-0.3-2.3-0.8c-0.1-0.1-0.2-0.1-0.4-0.2
		c0,0.2,0,0.4,0,0.5c0,3.9,0,7.7,0,11.6c0,0.4,0,0.7,0.2,1.1c0.4,1.2,1.4,1.9,2.9,1.9c14.1,0,28.2,0,42.3,0c1.6,0,3.2-0.9,3.2-3.2
		c0-3.8,0-7.5,0-11.3C54.2,41.8,54.2,41.7,54.2,41.4z M30,11.4c1.2,0,2.5,0,3.7,0c3.4,0,6.8,0,10.2,0c0.6,0,0.6,0,0.6-0.7
		c0-0.6,0-1.3,0-1.9c0-0.7,0-0.7-0.7-0.7c-4.1,0-8.3,0-12.4,0c-5.1,0-10.2,0-15.2,0c-0.7,0-0.7,0-0.7,0.7c0,0.6,0,1.3,0,1.9
		c0,0.7,0,0.7,0.7,0.7C20.8,11.4,25.4,11.4,30,11.4z M30,3.8c-3.9,0-7.8,0-11.7,0c-0.6,0-0.6,0-0.6,0.7c0,0.6,0,1.3,0,1.9
		c0,0.6,0,0.6,0.7,0.6c3.1,0,6.1,0,9.2,0c4.8,0,9.6,0,14.4,0c0.6,0,0.6,0,0.6-0.6c0-0.6,0-1.3,0-1.9c0-0.7,0-0.7-0.7-0.7
		C37.8,3.8,33.9,3.8,30,3.8z M12.2,21.6c-0.1,0.2-0.2,0.2-0.2,0.2c-0.6,1.8-1.3,3.5-1.9,5.3c-1.4,3.8-2.8,7.6-4.2,11.4
		c-0.1,0.3-0.1,0.7,0,1c0.3,1.1,1.4,1.9,2.6,1.9c1.1,0,2.1,0,3.2,0c0.4,0,0.6-0.1,0.6-0.6c0-6.2,0-12.5,0-18.7
		C12.3,22,12.2,21.8,12.2,21.6z M47.9,21.7c0,0-0.1,0-0.1,0c0,0.1-0.1,0.3-0.1,0.4c0,6.3,0,12.5,0,18.8c0,0.4,0.2,0.5,0.5,0.5
		c1.1,0,2.2,0,3.3,0c0.9,0,1.6-0.4,2.2-1.1c0.4-0.5,0.7-1.1,0.4-1.8c-0.4-1.1-0.8-2.3-1.2-3.4c-1.4-3.7-2.7-7.3-4.1-11
		C48.5,23.3,48.2,22.5,47.9,21.7z"/>
	<path class="st0" d="M30,30.7c3.8,0,7.6,0,11.4,0c0.1,0,0.3,0,0.4,0c0.2,0.1,0.4,0.3,0.4,0.4c0,0.2-0.2,0.4-0.4,0.5
		c-0.1,0.1-0.4,0-0.6,0c-7.6,0-15.2,0-22.9,0c-0.1,0-0.3,0-0.4,0c-0.2-0.1-0.3-0.3-0.5-0.5c0.2-0.2,0.3-0.4,0.5-0.4
		c0.9,0,1.8,0,2.7,0C23.9,30.7,27,30.7,30,30.7z"/>
	<path class="st0" d="M30,27.4c-3.8,0-7.6,0-11.3,0c-0.1,0-0.3,0-0.4,0c-0.2-0.1-0.5-0.3-0.5-0.4c0-0.2,0.2-0.4,0.4-0.6
		c0.1-0.1,0.3,0,0.4,0c7.7,0,15.3,0,23,0c0.1,0,0.2,0,0.2,0c0.3,0,0.6,0.2,0.6,0.5c0,0.4-0.3,0.5-0.6,0.5c-1.2,0-2.5,0-3.7,0
		C35.3,27.4,32.6,27.4,30,27.4z"/>
	<path class="st0" d="M25.7,36c-2.4,0-4.7,0-7.1,0c-0.1,0-0.3,0.1-0.4,0c-0.2-0.1-0.4-0.3-0.5-0.5c0-0.1,0.3-0.3,0.5-0.5
		c0.1-0.1,0.3,0,0.4,0c4.8,0,9.5,0,14.3,0c0.4,0,0.8-0.1,0.9,0.5c0,0.4-0.2,0.5-0.9,0.5C30.4,36,28,36,25.7,36z"/>
	<path class="st0" d="M23.5,21c-1.7,0-3.4,0-5.2,0c-0.4,0-0.7-0.1-0.7-0.5c0-0.4,0.3-0.5,0.7-0.5c3.5,0,6.9,0,10.4,0
		c0.4,0,0.7,0.1,0.7,0.5c0,0.5-0.3,0.5-0.7,0.5C27,21,25.2,21,23.5,21z"/>
	<path class="st0" d="M30,51.1c-1.4,0-2.8,0-4.2,0c-1.9,0-3.3-1-3.7-2.9c-0.2-0.7-0.1-1.4-0.1-2.1c0-0.1,0.3-0.4,0.5-0.4
		c0.2,0,0.4,0.2,0.5,0.4c0.1,0.3,0.1,0.6,0,1c-0.1,1.4,1,2.9,2.8,2.9c2.8,0,5.6,0,8.5,0c1.6,0,2.8-1.3,2.8-2.9c0-0.3-0.1-0.7,0-1
		c0-0.2,0.3-0.4,0.5-0.4c0.1,0,0.4,0.2,0.5,0.4c0.5,1.6-0.4,3.6-1.8,4.4c-0.6,0.3-1.3,0.5-2,0.5C32.7,51.1,31.4,51.1,30,51.1z"/>
</g>
</svg>
