<?xml version="1.0" encoding="utf-8"?>
<!-- Generator: Adobe Illustrator 25.0.0, SVG Export Plug-In . SVG Version: 6.00 Build 0)  -->
<svg version="1.1" id="Capa_1" xmlns="http://www.w3.org/2000/svg" xmlns:xlink="http://www.w3.org/1999/xlink" x="0px" y="0px"
	 viewBox="0 0 60 60" style="enable-background:new 0 0 60 60;" xml:space="preserve">
<style type="text/css">
	.st0{fill:#FFFFFF;}
</style>
<g>
	<path class="st0" d="M29.9,53.4c-7.2,0-14.4,0-21.6,0c-1.3,0-2.4-0.4-3.2-1.5c-0.4-0.5-0.6-1.2-0.6-1.8c0-4.4,0-8.8,0-13.2
		c0-6.2,0-12.4,0-18.6c0-2,1.5-3.5,3.5-3.5c3.9,0,7.9,0,11.8,0c0.7,0,0.7,0,0.7-0.7c0-1.3,0-2.5,0-3.8c0-2,1.5-3.5,3.5-3.5
		c4,0,7.9,0,11.9,0c2,0,3.5,1.5,3.5,3.5c0,1.3,0,2.6,0,3.9c0,0.5,0.1,0.6,0.6,0.6c4,0,7.9,0,11.9,0c2,0,3.5,1.5,3.5,3.5
		c0,5.4,0,10.7,0,16.1c0,5.2,0,10.4,0,15.6c0,1.9-1.4,3.3-3.2,3.4c-0.2,0-0.5,0-0.7,0C44.3,53.4,37.1,53.4,29.9,53.4z M54.4,38.1
		c-0.1,0-0.2,0-0.2,0.1c-0.1,0-0.1,0.1-0.2,0.1c-0.9,0.9-2,1.3-3.2,1.3c-1,0-2.1,0-3.1,0c-0.9,0-1.8,0-2.7,0c-0.4,0-0.6-0.2-0.5-0.6
		c0.1-0.3,0.3-0.4,0.6-0.4c1.9,0,3.9,0,5.8,0c1.1,0,2-0.5,2.7-1.3c0.7-0.8,0.8-1.8,0.8-2.8c0-5.4,0-10.8,0-16.2
		c0-1.5-1.1-2.6-2.6-2.6c-14.6,0-29.1,0-43.7,0c-1.5,0-2.6,1.1-2.6,2.6c0,5,0,10.1,0,15.1c0,0.6,0.1,1.3,0.1,1.9
		c-0.1,1.5,1.5,3.3,3.5,3.2c0.6,0,1.3,0,1.9,0c0.3,0,0.6,0.1,0.6,0.5c0,0.3-0.2,0.5-0.6,0.5c-0.6,0-1.3,0-1.9,0
		c-1.2,0-2.2-0.4-3.1-1.2c-0.1-0.1-0.2-0.1-0.4-0.2c0,0.2,0,0.3,0,0.4c0,3.9,0,7.7,0,11.6c0,0.3,0.1,0.6,0.2,0.9
		c0.5,1.2,1.5,1.6,2.8,1.6c14.3,0,28.7,0,43,0c0.2,0,0.3,0,0.5,0c1.4-0.1,2.4-1.2,2.4-2.6c0-3.8,0-7.5,0-11.3
		C54.4,38.4,54.4,38.3,54.4,38.1z M30,14.8c2.7,0,5.3,0,8,0c0.4,0,0.5-0.1,0.5-0.5c0-1.3,0-2.6,0-3.9c0-1.5-1.1-2.6-2.6-2.6
		c-3.9,0-7.9,0-11.8,0c-1.5,0-2.6,1.1-2.6,2.6c0,1.3,0,2.5,0,3.8c0,0.6,0,0.6,0.6,0.6C24.7,14.8,27.4,14.8,30,14.8z"/>
	<path class="st0" d="M41.4,39c0,2.2,0,4.4,0,6.7c0,1.3-0.6,1.8-1.8,1.8c-1.1,0-2.3,0-3.4,0c-1,0-1.8-0.5-1.7-1.7c0-4.5,0-9,0-13.5
		c0-0.6,0-0.7-0.7-0.7c-0.9,0-1.7,0-2.6,0c-0.7,0-0.9-0.4-0.6-1c2.2-3.8,4.4-7.6,6.7-11.4c0.4-0.6,0.8-0.6,1.1,0
		c2.2,3.8,4.4,7.5,6.6,11.3c0.4,0.7,0.2,1-0.6,1c-0.9,0-1.7,0-2.6,0c-0.4,0-0.5,0.1-0.5,0.5C41.5,34.4,41.4,36.7,41.4,39z
		 M31.8,30.6c0.3,0,0.4,0,0.5,0c0.7,0,1.4,0,2.1,0c0.9,0,1,0.2,1,1c0,4.7,0,9.4,0,14c0,0.7,0.2,0.9,0.8,0.9c1,0,2.1,0,3.1,0
		c0.9,0,1.1-0.2,1.1-1c0-4.7,0-9.4,0-14.1c0-0.6,0.1-0.7,0.7-0.8c0.8,0,1.5,0,2.3,0c0.5,0,0.5-0.1,0.3-0.5c-1.9-3.2-3.7-6.4-5.6-9.6
		c-0.1-0.1-0.2-0.2-0.3-0.4C35.9,23.7,33.9,27.1,31.8,30.6z"/>
	<path class="st0" d="M31.4,41c0,1.6,0,3.2,0,4.8c0,1-0.6,1.6-1.5,1.6c-1.3,0-2.5,0-3.8,0c-1,0-1.6-0.6-1.6-1.7c0-3.2,0-6.4,0-9.5
		c0-1.1,0.7-1.7,1.7-1.7c1.2,0.1,2.5,0,3.7,0c1,0,1.5,0.6,1.5,1.5C31.4,37.8,31.4,39.4,31.4,41z M30.5,41.1c0-1.6,0-3.1,0-4.7
		c0-0.6-0.2-0.8-0.8-0.8c-1.1,0-2.3,0-3.4,0c-0.7,0-0.9,0.2-0.9,0.9c0,3.1,0,6.1,0,9.2c0,0.7,0.2,0.9,0.9,0.9c1.1,0,2.2,0,3.3,0
		c0.6,0,0.8-0.2,0.8-0.8C30.5,44.2,30.5,42.6,30.5,41.1z"/>
	<path class="st0" d="M14.5,43.1c0-1,0-1.9,0-2.9c0-1,0.6-1.6,1.6-1.6c1.3,0,2.5,0,3.8,0c1,0,1.6,0.6,1.6,1.5c0,1.9,0,3.9,0,5.8
		c0,0.9-0.5,1.5-1.4,1.5c-1.4,0.1-2.7,0.1-4.1,0c-0.9,0-1.4-0.7-1.4-1.6C14.5,45,14.5,44,14.5,43.1z M15.5,43c0,0.9,0,1.9,0,2.8
		c0,0.5,0.2,0.7,0.7,0.7c1.2,0,2.4,0,3.6,0c0.5,0,0.7-0.3,0.7-0.7c0-1.8,0-3.7,0-5.5c0-0.5-0.2-0.8-0.8-0.8c-1.2,0-2.3,0-3.5,0
		c-0.6,0-0.8,0.2-0.8,0.8C15.5,41.2,15.5,42.1,15.5,43z"/>
</g>
</svg>
