<?xml version="1.0" encoding="utf-8"?>
<!-- Generator: Adobe Illustrator 25.0.0, SVG Export Plug-In . SVG Version: 6.00 Build 0)  -->
<svg version="1.1" id="Capa_1" xmlns="http://www.w3.org/2000/svg" xmlns:xlink="http://www.w3.org/1999/xlink" x="0px" y="0px"
	 viewBox="0 0 60 60" style="enable-background:new 0 0 60 60;" xml:space="preserve">
<style type="text/css">
	.st0{fill:#FFFFFF;}
</style>
<g>
	<path class="st0" d="M52.2,29.8c0,7.7,0,15.5,0,23.2c0,2.2-1.1,4-3.2,4.8c-0.6,0.2-1.3,0.3-1.9,0.3c-11,0-22,0-33,0
		c-2.9,0-5.1-2.3-5.1-5.1c0-12.6,0-25.2,0-37.7c0-1.6,0.5-2.9,1.7-4.1c2.7-2.7,5.5-5.4,8.2-8.2c1-1,2.3-1.5,3.7-1.5
		c8.2,0,16.4,0,24.7,0c2.9,0,5,2.2,5,5.1C52.2,14.2,52.2,22,52.2,29.8z M51.2,29.8c0-7.7,0-15.3,0-23c0-2.4-1.8-4.3-4.3-4.3
		c-8.1,0.1-16.2,0-24.4,0c-1.2,0-2.2,0.4-3,1.2c-2.8,2.8-5.6,5.6-8.3,8.4c-0.8,0.8-1.3,1.8-1.3,3c0,12.6,0,25.2,0,37.8
		c0,2.3,1.8,4.2,4.2,4.2c10.9,0,21.8,0,32.7,0c2.5,0,4.2-1.7,4.2-4.2C51.2,45.1,51.2,37.4,51.2,29.8z"/>
	<path class="st0" d="M25.6,39.8c0,1.4,0,2.7,0,4.1c0,0.7-0.2,0.9-0.9,0.9c-2.7,0-5.4,0-8.1,0c-0.7,0-0.9-0.2-0.9-0.9
		c0-2.7,0-5.5,0-8.2c0-0.7,0.2-0.9,0.8-0.9c2.8,0,5.5,0,8.3,0c0.7,0,0.9,0.2,0.9,0.9C25.6,37.1,25.6,38.4,25.6,39.8z M20.6,35.9
		c-1.1,0-2.3,0-3.4,0c-0.4,0-0.6,0.1-0.6,0.5c0,2.3,0,4.5,0,6.8c0,0.4,0.2,0.6,0.6,0.6c2.2,0,4.5,0,6.7,0c0.4,0,0.6-0.1,0.6-0.6
		c0-2.2,0-4.5,0-6.7c0-0.4-0.1-0.5-0.5-0.5C22.9,35.9,21.7,35.9,20.6,35.9z"/>
	<path class="st0" d="M20.6,29.1c-0.3-0.1-0.5-0.2-0.6-0.4c-1.3-1.3-2.6-2.6-3.9-3.9c-0.3-0.3-0.4-0.6-0.2-0.9
		c0.1-0.2,0.7-0.1,1,0.2c1.1,1.1,2.2,2.2,3.3,3.3c0.3,0.3,0.5,0.3,0.9,0c2.5-2.6,5.1-5.1,7.7-7.7c0.4-0.4,0.9-0.5,1.1-0.3
		c0.2,0.2,0.1,0.7-0.3,1.1c-2.7,2.7-5.4,5.4-8.1,8.1C21.1,28.9,20.8,29,20.6,29.1z"/>
	<path class="st0" d="M16.9,15.8c-1,0-1.9,0-2.9,0c-0.4,0-0.7-0.1-0.7-0.5c0-0.4,0.3-0.5,0.7-0.5c1.8,0,3.5,0,5.3,0
		c1.6,0,2.8-1.2,2.8-2.8c0-1.7,0-3.5,0-5.2c0-0.1,0-0.3,0-0.4c0.1-0.2,0.4-0.4,0.5-0.4c0.2,0,0.3,0.3,0.5,0.5c0.1,0.1,0,0.2,0,0.3
		c0,1.7,0,3.5,0,5.2c0,2.3-1.6,3.9-3.9,3.9C18.6,15.8,17.8,15.8,16.9,15.8z"/>
	<path class="st0" d="M38.3,37c2.1,0,4.2,0,6.3,0c0.1,0,0.3,0,0.4,0c0.2,0.1,0.4,0.3,0.4,0.5c0,0.2-0.2,0.4-0.4,0.5
		c-0.1,0.1-0.4,0.1-0.5,0.1c-4.2,0-8.4,0-12.6,0c-0.2,0-0.4,0-0.5-0.1c-0.2-0.1-0.4-0.3-0.3-0.5c0-0.2,0.2-0.3,0.4-0.5
		c0.1-0.1,0.3,0,0.4,0C34.1,37,36.2,37,38.3,37z"/>
	<path class="st0" d="M38.3,24.8c-2.1,0-4.2,0-6.3,0c-0.2,0-0.4,0-0.5,0c-0.2-0.1-0.4-0.4-0.4-0.6c0-0.1,0.3-0.3,0.5-0.4
		c0.1-0.1,0.2,0,0.3,0c4.2,0,8.4,0,12.7,0c0.1,0,0.2,0,0.3,0c0.3,0,0.6,0.2,0.5,0.4c0,0.2-0.3,0.4-0.5,0.6c-0.1,0.1-0.3,0-0.5,0
		C42.5,24.8,40.4,24.8,38.3,24.8z"/>
	<path class="st0" d="M36.1,28.1c1.4,0,2.8,0,4.2,0c0.4,0,0.7,0,0.8,0.5c0,0.3-0.3,0.6-0.8,0.6c-2.8,0-5.6,0-8.3,0
		c-0.1,0-0.3,0-0.4-0.1c-0.2-0.1-0.4-0.3-0.4-0.5c0-0.2,0.2-0.3,0.4-0.5c0.1-0.1,0.3,0,0.4,0C33.4,28.1,34.8,28.1,36.1,28.1z"/>
	<path class="st0" d="M36.2,41.5c1.4,0,2.8,0,4.2,0c0.4,0,0.7,0.1,0.7,0.5c0,0.4-0.3,0.5-0.7,0.5c-2.8,0-5.7,0-8.5,0
		c-0.4,0-0.7,0-0.7-0.5c0-0.5,0.4-0.5,0.7-0.5C33.3,41.5,34.7,41.5,36.2,41.5z"/>
</g>
</svg>
