<?xml version="1.0" encoding="utf-8"?>
<!-- Generator: Adobe Illustrator 25.0.0, SVG Export Plug-In . SVG Version: 6.00 Build 0)  -->
<svg version="1.1" id="Capa_1" xmlns="http://www.w3.org/2000/svg" xmlns:xlink="http://www.w3.org/1999/xlink" x="0px" y="0px"
	 viewBox="0 0 60 60" style="enable-background:new 0 0 60 60;" xml:space="preserve">
<style type="text/css">
	.st0{fill:#383838;}
</style>
<g>
	<path class="st0" d="M50.9,31.7c-1.4,0-2.8,0-4.3,0c-0.3,0-0.5,0.1-0.5,0.4c-0.3,2.3-1,4.5-2.3,6.5c-0.2,0.3,0,0.4,0.1,0.6
		c2.6,2.6,5.2,5.3,7.8,7.8c0.6,0.6,0.8,1.2,0.6,2c-0.4,1.9-2.1,3.5-4,3.7c-0.5,0-0.9-0.1-1.2-0.5c-2.6-2.7-5.3-5.4-7.9-8
		c-0.3-0.3-0.5-0.3-0.9-0.1c-2.1,1.2-4.3,2-6.7,2.2c-6.8,0.7-13.3-2.9-16.2-9.1c-0.8-1.6-1.2-3.2-1.5-4.9c-0.1-0.6-0.1-0.6-0.8-0.6
		c-2.7,0-5.5,0-8.2,0c-1.7,0-3-0.9-3.6-2.5c-0.1-0.4-0.2-0.8-0.2-1.1c0-1,0-2,0-3c-0.1-2.1,1.2-3.5,3-4.1c0.7-0.2,1.5-0.5,2.2-0.8
		c0.4-0.2,0.8-0.1,1.1,0.3c1.4,1.4,2.8,2.9,4.3,4.3c0.3,0.3,0.5,0.3,0.7,0c1.5-1.5,3-3.1,4.5-4.6c0.9-0.9,1.8-2,2.8-2.8
		c2.1-1.8,4.6-2.9,7.3-3.4c5-0.8,9.4,0.3,13.3,3.5c1,0.8,1.8,1.9,2.7,2.8c1.5,1.5,3,3,4.4,4.5c0.3,0.3,0.4,0.2,0.6-0.1
		c1.4-1.4,2.7-2.7,4.1-4.1c0.5-0.5,0.9-0.6,1.6-0.4c0.9,0.4,2,0.6,2.9,1.1c1.4,0.7,2.1,1.9,2.1,3.4c0,1,0,2.1,0,3.1
		c0,2.1-1.6,3.7-3.7,3.8C53.7,31.7,52.3,31.7,50.9,31.7z M41,40.5c0.1,0,0.1,0,0.2,0.1c1-1.1,1.8-2.3,2.5-3.6
		c1.6-3.4,2-6.9,1.1-10.6c-1.7-6.6-7.4-11.6-14.8-11.6c-7.3,0-13.6,5.1-15,12.7c-0.6,3.5,0,6.8,1.6,9.9c0.6,1.2,1.4,2.2,2.4,3.3
		c0-0.3,0-0.4,0-0.5c0-0.8,0-1.6,0-2.4c0-1.7,0.8-3,2.3-3.7c0.9-0.4,1.9-0.7,2.9-1c0.5-0.2,0.9-0.1,1.3,0.3c1.4,1.4,2.8,2.8,4.2,4.2
		c0.3,0.3,0.5,0.3,0.8,0c1.4-1.4,2.8-2.8,4.2-4.2c0.3-0.4,0.7-0.5,1.2-0.3c0.8,0.3,1.7,0.6,2.5,0.9c1.2,0.5,2.1,1.2,2.5,2.5
		c0.1,0.4,0.2,0.9,0.2,1.4C41,38.7,41,39.6,41,40.5z M20,39.4c0,0.6,0,1.2,0,1.8c0,0.4,0.1,0.6,0.4,0.9c2.6,2.1,5.5,3.3,8.8,3.4
		c3.9,0.2,7.4-1,10.4-3.5c0.2-0.2,0.3-0.5,0.4-0.7c0-1.2,0-2.4,0-3.6c0-1.3-0.6-2.2-1.8-2.8c-0.8-0.3-1.6-0.6-2.3-0.9
		c-0.3-0.1-0.6-0.1-0.8,0.2c-1.5,1.5-2.9,3-4.4,4.4c-0.5,0.5-0.8,0.5-1.3,0c-1.5-1.5-2.9-2.9-4.4-4.4c-0.2-0.2-0.4-0.4-0.7-0.2
		c-0.7,0.3-1.4,0.5-2.2,0.8c-1.4,0.5-2.1,1.5-2.1,3.1C20,38.4,20,38.9,20,39.4z M14.9,24.1C14.8,24.1,14.8,24,14.9,24.1
		c-0.2,0-0.3,0.1-0.4,0.3c-0.5,0.5-1.1,1.1-1.6,1.6c-0.6,0.6-0.7,0.6-1.3,0C10,24.5,8.6,23,7.1,21.5c-0.2-0.2-0.4-0.3-0.7-0.2
		c-0.7,0.3-1.5,0.5-2.2,0.8c-1.4,0.6-2,1.5-2,3c0,0.9,0,1.8,0,2.6c-0.1,1.8,1.3,3,3,3c2.7,0,5.3,0,8,0c0.5,0,0.6-0.1,0.6-0.6
		c0-1.4,0.2-2.9,0.6-4.3C14.5,25.3,14.7,24.7,14.9,24.1z M45.2,24.1c0,0.1,0,0.2,0,0.3c0.7,1.9,1.1,3.9,1,6c0,0.3,0.1,0.4,0.5,0.4
		c2.8,0,5.7,0,8.5,0c1.5,0,2.7-1.3,2.7-2.7c0-1,0-2.1,0-3.1c0-1-0.4-1.9-1.3-2.3c-0.9-0.5-2-0.8-2.9-1.2c-0.3-0.1-0.5,0-0.7,0.2
		c-1.4,1.5-2.9,2.9-4.4,4.4c-0.6,0.6-0.8,0.6-1.4,0C46.5,25.3,45.9,24.7,45.2,24.1z M51.5,48.5c0-0.1-0.1-0.2-0.2-0.4
		c-2.6-2.6-5.2-5.3-7.8-7.9c-0.3-0.3-0.4-0.2-0.6,0c-0.9,1-1.8,1.9-2.8,2.8c-0.3,0.3-0.3,0.4-0.1,0.7c2.5,2.5,5.1,5.1,7.6,7.7
		c0.4,0.4,0.8,0.5,1.4,0.3C50.3,51.3,51.5,49.8,51.5,48.5z"/>
	<path class="st0" d="M17.9,13.2c0,3.2-2.5,5.8-5.7,5.8c-3.2,0-5.8-2.6-5.8-5.8c0-3.1,2.4-5.7,5.7-5.8C15.3,7.4,17.9,10,17.9,13.2z
		 M12.4,18c2.7-0.1,4.8-2.6,4.5-5.2c-0.3-2.7-2.5-4.5-4.9-4.3C9.2,8.6,7.2,11,7.4,13.6C7.7,16.4,10.1,18.2,12.4,18z"/>
	<path class="st0" d="M53.6,13.2c0,3.2-2.6,5.8-5.8,5.8c-3.2,0-5.8-2.6-5.8-5.8c0-3.3,2.5-5.8,5.8-5.8C51,7.4,53.6,10.1,53.6,13.2z
		 M52.6,13.2c0-2.6-2.3-4.9-4.8-4.8c-2.7,0.1-4.7,2.2-4.7,4.8c0,2.6,2.2,4.8,4.8,4.8C50.5,18,52.6,15.8,52.6,13.2z"/>
	<path class="st0" d="M35.7,26.3c-0.2,3.2-2.9,5.5-6,5.4c-3.6-0.2-5.7-3.1-5.5-6.1c0.2-3.5,3-5.6,5.9-5.5
		C33.6,20.2,36,23.2,35.7,26.3z M34.7,26c0.1-2.5-2.1-4.8-4.7-4.9c-2.5-0.1-4.8,2.1-4.8,4.7c-0.1,2.4,1.7,4.8,4.7,4.9
		C32.5,30.8,34.7,28.7,34.7,26z"/>
</g>
</svg>
